<?xml version="1.0" encoding="UTF-8"?>
<svg width="283px" height="25px" viewBox="0 0 283 25" version="1.1" xmlns="http://www.w3.org/2000/svg" xmlns:xlink="http://www.w3.org/1999/xlink">
    <!-- Generator: Sketch 52.6 (67491) - http://www.bohemiancoding.com/sketch -->
    <title>Group 10</title>
    <desc>Created with Sketch.</desc>
    <defs>
        <path d="M0,1.84604492 L0,20.372284 C1.62032946,19.2443803 3.70509932,18.6804285 6.25430959,18.6804285 C10.078125,18.6804285 17.8125,21.9623681 23.0859375,21.9623681 C26.6015625,21.9623681 28.90625,21.4323401 30,20.372284 L30,1.84604492 C27.5,2.917834 25.1953125,3.45372855 23.0859375,3.45372855 C19.921875,3.45372855 10.141731,0.0302270905 6.25430959,0.0302270905 C3.6626953,0.0302270905 1.57792544,0.635499699 0,1.84604492 Z" id="path-1"></path>
    </defs>
    <g id="Page-1" stroke="none" stroke-width="1" fill="none" fill-rule="evenodd">
        <g id="Group-23" transform="translate(-538.000000, -213.000000)">
            <g id="Group-22">
                <g id="Group-8" transform="translate(0.000000, 187.000000)">
                    <g id="Group-10" transform="translate(538.000000, 18.000000)">
                        <text id="REAN-KHMER-©-2024" font-family="AvenirNextCondensed-Regular, Avenir Next Condensed" font-size="32" font-style="condensed" font-weight="normal" fill="#E9E9E9">
                            <tspan x="39" y="32">REAN KHMER © 2024</tspan>
                        </text>
                        <g id="Group-16-Copy-10" transform="translate(0.000000, 10.000000)">
                            <g id="Path-3">
                                <mask id="mask-2" fill="white">
                                    <use xlink:href="#path-1"></use>
                                </mask>
                                <use id="Mask" fill="#FFFFFF" xlink:href="#path-1"></use>
                            </g>
                            <path d="M10,13.4516938 C11.1396291,13.502754 12.2907615,13.7089894 13.4533973,14.0703999 C14.2938096,14.3316459 15.5964581,14.7078403 17.9791247,15.4670342 C18.5881519,15.6610897 19.5951103,15.838745 21,16 L21,15.4670342 L19.7645761,13.4007346 L19.7645761,11.814355 L18.7457837,9.20108834 L17.9791247,10.822278 L16.5454851,10.4675683 L15.5797578,7 L14.4234159,9.89566517 L13.0846829,9.51778249 L12.1826666,7.30403846 L11.3615899,9.31108463 L11.3615899,10.822278 L10,12.4082285 L10,13.4516938 Z" id="Path-4" fill="#428777"></path>
                        </g>
                    </g>
                </g>
            </g>
        </g>
    </g>
</svg>