<?xml version="1.0" encoding="UTF-8"?>
<svg width="193px" height="23px" viewBox="0 0 193 23" version="1.1" xmlns="http://www.w3.org/2000/svg" xmlns:xlink="http://www.w3.org/1999/xlink">
    <!-- Generator: Sketch 52.6 (67491) - http://www.bohemiancoding.com/sketch -->
    <title>Group 9</title>
    <desc>Created with Sketch.</desc>
    <defs>
        <path d="M0,1.76213378 L0,19.4462711 C1.51230749,18.3696358 3.4580927,17.8313181 5.83735562,17.8313181 C9.40625,17.8313181 16.625,20.9640786 21.546875,20.9640786 C24.828125,20.9640786 26.9791667,20.4581428 28,19.4462711 L28,1.76213378 C25.6666667,2.78520519 23.515625,3.29674089 21.546875,3.29674089 C18.59375,3.29674089 9.46561563,0.0288531318 5.83735562,0.0288531318 C3.41851561,0.0288531318 1.47273041,0.60661335 0,1.76213378 Z" id="path-1"></path>
    </defs>
    <g id="Page-1" stroke="none" stroke-width="1" fill="none" fill-rule="evenodd">
        <g id="Group-17" transform="translate(-41.000000, -34.000000)">
            <g id="Group-9" transform="translate(41.000000, 25.000000)">
                <text id="REAN-KHMER" font-family="AvenirNextCondensed-Regular, Avenir Next Condensed" font-size="32" font-style="condensed" font-weight="normal" fill="#428777">
                    <tspan x="41" y="32">REAN KHMER</tspan>
                </text>
                <g id="Group-16-Copy-9" transform="translate(14.000000, 20.500000) scale(-1, 1) translate(-14.000000, -20.500000) translate(0.000000, 10.000000)">
                    <g id="Path-3">
                        <mask id="mask-2" fill="white">
                            <use xlink:href="#path-1"></use>
                        </mask>
                        <use id="Mask" fill="#428777" xlink:href="#path-1"></use>
                        <path d="M-1.96875,6.91657985 C0.396303919,5.40026346 2.9968132,4.64210526 5.83277783,4.64210526 C10.0867248,4.64210526 17.390625,7.58641808 21.546875,7.58641808 C24.3177083,7.58641808 27.5235301,6.60498047 31.1643404,4.64210526 L31.1643404,13.3271062 C28.0339468,15.3230312 25.0833333,16.3209936 22.3125,16.3209936 C18.15625,16.3209936 10.5428419,13.3271062 5.83277783,13.3271062 C2.69273511,13.3271062 0.0922258351,14.3250687 -1.96875,16.3209936 L-1.96875,6.91657985 Z" fill="#428777" mask="url(#mask-2)"></path>
                    </g>
                    <path d="M9,12.425968 C11.0564553,12.8582973 12.6660008,13.2350889 13.8286366,13.5563428 C14.9912723,13.8775966 17.0483935,14.3588156 20,15 L20,14.5262526 L18.7645761,12.6895419 L18.7645761,11.0735127 L17.7457837,8.95652297 L16.9791247,10.3975805 L15.5454851,10.0822829 L14.5797578,7 L13.4234159,9.57392459 L12.0846829,9.23802888 L11.1826666,7.27025641 L10.3615899,9.05429745 L10.3615899,10.3975805 L9,11.8073142 L9,12.425968 Z" id="Path-4" fill="#FFFFFF"></path>
                </g>
            </g>
        </g>
    </g>
</svg>